<?xml version="1.0" encoding="utf-8"?>
<!-- Generator: Adobe Illustrator 20.0.0, SVG Export Plug-In . SVG Version: 6.00 Build 0)  -->
<!DOCTYPE svg PUBLIC "-//W3C//DTD SVG 1.1//EN" "http://www.w3.org/Graphics/SVG/1.1/DTD/svg11.dtd">
<svg version="1.1" id="Layer_1" xmlns="http://www.w3.org/2000/svg" xmlns:xlink="http://www.w3.org/1999/xlink" x="0px" y="0px"
	 viewBox="0 0 115.3 101" style="enable-background:new 0 0 115.3 101;" xml:space="preserve">
<style type="text/css">
	.st0{fill:#FFFFFF;}
</style>
<g>
	<g>
		<polygon class="st0" points="59.5,0.8 106.7,37.6 107.7,37.6 59.5,0 11.2,37.6 12.2,37.6 		"/>
	</g>
	<g>
		<polygon class="st0" points="59.5,100.2 12.1,63.3 11.1,63.3 59.5,101 107.8,63.3 106.8,63.3 		"/>
	</g>
	<g>
		<polygon class="st0" points="59.5,99.4 13.1,63.3 12.1,63.3 59.5,100.2 106.8,63.3 105.8,63.3 		"/>
	</g>
	<g>
		<polygon class="st0" points="12.2,37.6 13.2,37.6 59.5,1.6 105.7,37.6 106.7,37.6 59.5,0.8 		"/>
	</g>
</g>
<g>
	<path class="st0" d="M62.8,23.9c-0.4-0.3-0.6-0.4-1-0.7c-1.4-1-2.8-1.8-4.3-2.6c1.2,1.1,1.8,1.7,2.7,2.7c-0.9,0.3-1.6,0.5-2.7,1
		c-0.5,0.2-0.7,0.3-1.2,0.5c0.4,0.2,0.6,0.3,1,0.5c1.6,0.9,2.4,1.4,3.8,2.5c-0.8-1.2-1.4-1.8-2.3-2.8c0.9-0.3,1.6-0.5,2.7-0.8
		C62.1,24,62.3,24,62.8,23.9z"/>
</g>
<g>
	<path class="st0" d="M62.8,79.5c-0.4-0.3-0.6-0.4-1-0.7c-1.4-1-2.8-1.8-4.3-2.6c1.2,1.1,1.8,1.7,2.7,2.7c-0.9,0.3-1.6,0.5-2.7,1
		c-0.5,0.2-0.7,0.3-1.2,0.5c0.4,0.2,0.6,0.3,1,0.5c1.6,0.9,2.4,1.4,3.8,2.5c-0.8-1.2-1.4-1.8-2.3-2.8c0.9-0.3,1.6-0.5,2.7-0.8
		C62.1,79.7,62.3,79.6,62.8,79.5z"/>
</g>
<g>
	<path class="st0" d="M0,43.7h11.6v5H8.5v-2.1H4.7v2.9h2.9v2.8H4.7v3.4h3.7V53h3.1v5.2H0v-2.6h1.5v-9H0V43.7z"/>
	<path class="st0" d="M28.1,43.7h5.5v2.6h-1.2v11.9h-3.2l-6.1-9.4v6.8h1.2v2.6h-5.4v-2.6h1.2v-9.3h-1.2v-2.6h4.4l6,9.5v-6.9h-1.2
		L28.1,43.7z"/>
	<path class="st0" d="M51.5,58.2v-2.5c-0.4,0.7-0.8,1.2-1.2,1.5S49.5,57.8,49,58s-1.1,0.3-1.9,0.3c-0.4,0-0.8-0.1-1.2-0.1
		c-0.4-0.1-0.8-0.2-1.2-0.4s-0.7-0.3-1.1-0.6s-0.7-0.5-1-0.8c-0.7-0.7-1.3-1.5-1.7-2.5s-0.6-2-0.6-3.1c0-0.7,0.1-1.3,0.2-2
		c0.2-0.6,0.4-1.2,0.7-1.8s0.7-1.1,1.1-1.5c0.4-0.5,0.9-0.8,1.4-1.2c0.5-0.3,1.1-0.6,1.7-0.8c0.6-0.2,1.2-0.3,1.9-0.3
		c0.8,0,1.4,0.1,2,0.3s1.2,0.6,1.8,1.1h2.1v3.2h-3c-0.3-0.5-0.6-0.8-0.8-1s-0.5-0.4-0.8-0.5s-0.7-0.2-1.3-0.2c-0.5,0-1,0.1-1.5,0.4
		c-0.5,0.2-0.9,0.6-1.2,1S44,48.4,43.8,49s-0.3,1.1-0.3,1.7c0,0.6,0.1,1.1,0.3,1.7c0.2,0.5,0.4,1,0.8,1.4c0.4,0.4,0.8,0.7,1.2,1
		c0.5,0.2,1,0.3,1.5,0.3c0.7,0,1.3-0.2,1.8-0.6c0.5-0.4,0.9-0.9,1.1-1.6h-2.8v-2.6h6.7v7.8L51.5,58.2L51.5,58.2z"/>
	<path class="st0" d="M69.8,55.6h1.4l-0.7-2.1H66l-0.7,2.1h1.5v2.6h-5.5v-2.6h1.1l4-11.9h3.8l3.9,11.9h1.1v2.6h-5.5L69.8,55.6
		L69.8,55.6z M66.9,51.1h2.9l-1.5-4.7L66.9,51.1z"/>
	<path class="st0" d="M92.9,58.2v-2.5c-0.4,0.7-0.8,1.2-1.2,1.5c-0.4,0.3-0.8,0.6-1.3,0.8s-1.1,0.3-1.9,0.3c-0.4,0-0.8-0.1-1.2-0.1
		c-0.4-0.1-0.8-0.2-1.2-0.4s-0.7-0.3-1.1-0.6s-0.7-0.5-1-0.8c-0.6-0.6-1.1-1.4-1.5-2.4s-0.6-1.9-0.6-3c0-0.7,0.1-1.3,0.2-2
		c0.2-0.6,0.4-1.2,0.7-1.8s0.7-1.1,1.1-1.5c0.4-0.5,0.9-0.8,1.4-1.2c0.5-0.3,1.1-0.6,1.7-0.8s1.2-0.3,1.9-0.3c0.8,0,1.4,0.1,2,0.3
		s1.2,0.6,1.8,1.1h2.1V48h-3c-0.3-0.5-0.6-0.8-0.8-1s-0.5-0.4-0.8-0.5s-0.7-0.2-1.3-0.2c-0.5,0-1,0.1-1.5,0.4
		c-0.5,0.2-0.9,0.6-1.2,1s-0.6,0.9-0.8,1.5c-0.2,0.6-0.3,1.1-0.3,1.7c0,0.6,0.1,1.1,0.3,1.7c0.2,0.5,0.4,1,0.8,1.4s0.8,0.7,1.2,1
		c0.5,0.2,1,0.3,1.5,0.3c0.7,0,1.3-0.2,1.8-0.6c0.5-0.4,0.9-0.9,1.1-1.6H89v-2.6h6.7v7.8h-2.8V58.2z"/>
	<path class="st0" d="M103.7,43.7h11.6v5h-3.1v-2.1h-3.7v2.9h2.9v2.8h-2.9v3.4h3.7V53h3.1v5.2h-11.6v-2.6h1.5v-9h-1.5V43.7z"/>
</g>
<g>
	<path class="st0" d="M40.2,32.7l2-0.2c0.2,0,0.4,0,0.6,0c0.2,0.1,0.4,0.1,0.5,0.2c0.1,0.1,0.3,0.2,0.4,0.4c0.1,0.1,0.1,0.3,0.2,0.5
		c0,0.2,0,0.4,0,0.6c0,0.2-0.1,0.3-0.2,0.5c-0.1,0.1-0.3,0.3-0.5,0.4s-0.4,0.2-0.7,0.2l-0.6,0.1l0.1,0.8h0.4l0.1,0.8l-1.8,0.2
		l-0.1-0.8h0.5l-0.3-2.8h-0.5L40.2,32.7z M41.6,33.3l0.1,1.2h0.4c0.2,0,0.4-0.1,0.5-0.2c0.1-0.1,0.2-0.3,0.2-0.5s-0.1-0.3-0.2-0.4
		c-0.1-0.1-0.3-0.1-0.5-0.1H41.6z"/>
	<path class="st0" d="M46.4,32.1l2.3-0.1c0.2,0,0.4,0,0.6,0.1c0.2,0.1,0.3,0.1,0.5,0.2c0.1,0.1,0.2,0.2,0.3,0.4
		c0.1,0.1,0.1,0.3,0.1,0.5c0,0.1,0,0.3,0,0.4c0,0.1-0.1,0.2-0.1,0.3C50,34,50,34,49.9,34.1s-0.2,0.1-0.3,0.2c0.1,0,0.2,0.1,0.3,0.2
		c0.1,0.1,0.1,0.2,0.2,0.4l0.2,0.6h0.4l0.1,0.9l-1.3,0.1l-0.2-1c0-0.1-0.1-0.2-0.1-0.3S49.1,35,49,35c-0.1-0.1-0.1-0.1-0.2-0.1
		c-0.1,0-0.2,0-0.3,0h-0.4l0.1,1h0.4v0.8l-1.8,0.1V36h0.5l-0.4-3.1h-0.5V32.1z M47.9,32.9L48,34h0.6c0.1,0,0.2,0,0.3,0
		s0.2-0.1,0.2-0.1s0.1-0.1,0.1-0.2c0-0.1,0-0.1,0-0.2c0-0.2-0.1-0.3-0.2-0.4C48.9,33,48.7,33,48.5,33L47.9,32.9z"/>
	<path class="st0" d="M55.1,36.3c-0.2,0-0.4,0-0.6-0.1c-0.2-0.1-0.4-0.1-0.5-0.2c-0.2-0.1-0.3-0.2-0.4-0.3s-0.2-0.3-0.3-0.5
		s-0.2-0.3-0.2-0.5c-0.1-0.3-0.2-0.5-0.2-0.7s0-0.4,0.1-0.6c0-0.2,0.1-0.4,0.2-0.5c0.1-0.2,0.2-0.3,0.3-0.5c0.1-0.1,0.3-0.3,0.4-0.4
		c0.2-0.1,0.3-0.2,0.5-0.2c0.2-0.1,0.4-0.1,0.6-0.1c0.2,0,0.4,0,0.6,0.1c0.2,0.1,0.4,0.1,0.5,0.2c0.2,0.1,0.3,0.2,0.4,0.3
		c0.1,0.1,0.2,0.3,0.3,0.5s0.2,0.3,0.2,0.5c0.1,0.2,0.1,0.4,0.1,0.6c0,0.2,0,0.4-0.1,0.6c0,0.2-0.1,0.4-0.2,0.5
		c-0.1,0.2-0.2,0.3-0.3,0.5s-0.3,0.3-0.4,0.4c-0.2,0.1-0.3,0.2-0.5,0.2C55.5,36.2,55.3,36.3,55.1,36.3z M55.1,35.4
		c0.2,0,0.3,0,0.5-0.1c0.1-0.1,0.3-0.2,0.4-0.3c0.1-0.1,0.2-0.3,0.2-0.4s0.1-0.3,0.1-0.5s0-0.4-0.1-0.5c-0.1-0.2-0.1-0.3-0.2-0.4
		s-0.2-0.2-0.4-0.3c-0.1-0.1-0.3-0.1-0.5-0.1s-0.3,0-0.5,0.1c-0.1,0.1-0.3,0.2-0.4,0.3c-0.1,0.1-0.2,0.3-0.2,0.4
		c-0.1,0-0.1,0.2-0.1,0.4s0,0.4,0.1,0.5c0.1,0.2,0.1,0.3,0.2,0.4c0.1,0.1,0.2,0.2,0.4,0.3S54.9,35.4,55.1,35.4z"/>
	<path class="st0" d="M59.8,31.8h1.7v0.9h-0.3v3c0,0.2-0.1,0.3-0.2,0.4c-0.1,0.1-0.2,0.2-0.2,0.4c-0.1,0.1-0.2,0.2-0.3,0.4l-0.8-0.1
		c0.1-0.2,0.2-0.3,0.3-0.4c0.1-0.1,0.1-0.2,0.2-0.4s0.1-0.3,0.2-0.4v-2.9H60L59.8,31.8z"/>
	<path class="st0" d="M64.1,31.9l3.5,0.1l-0.1,1.5h-0.9v-0.6h-1.1v0.9h0.9v0.8h-0.9v1h1.1v-0.8h0.9l-0.1,1.6l-3.5-0.2v-0.8h0.5
		l0.1-2.7H64L64.1,31.9z"/>
	<path class="st0" d="M73,33.7c-0.1-0.2-0.2-0.3-0.3-0.4c-0.1-0.1-0.2-0.1-0.3-0.2c-0.1,0-0.2-0.1-0.3-0.1c-0.2,0-0.3,0-0.5,0.1
		c-0.1,0.1-0.3,0.1-0.4,0.3c-0.1,0.1-0.2,0.3-0.3,0.4c0.1,0.2,0,0.4,0,0.6s0,0.4,0,0.5s0.1,0.3,0.2,0.5s0.2,0.2,0.3,0.3
		s0.3,0.1,0.4,0.1s0.2,0,0.3,0s0.2-0.1,0.3-0.1c0.1-0.1,0.2-0.1,0.2-0.2c0.1-0.1,0.1-0.2,0.2-0.2l0.9,0.3c-0.1,0.2-0.2,0.4-0.3,0.5
		c-0.1,0.2-0.3,0.3-0.5,0.4s-0.4,0.2-0.6,0.2c-0.2,0.1-0.4,0.1-0.7,0c-0.2,0-0.4-0.1-0.6-0.1c-0.2-0.1-0.3-0.2-0.5-0.3
		c-0.1-0.1-0.3-0.2-0.4-0.4c-0.1-0.1-0.2-0.3-0.3-0.5c-0.1-0.2-0.1-0.4-0.2-0.6c0-0.2,0-0.4,0-0.6c0-0.3,0.1-0.6,0.2-0.9
		c0.1-0.3,0.3-0.5,0.5-0.7s0.4-0.3,0.7-0.4c0.3-0.1,0.5-0.1,0.8-0.1c0.2,0,0.4,0.1,0.6,0.1c0.2,0.1,0.3,0.2,0.5,0.4l0.6,0.1l-0.1,1
		H73z"/>
	<path class="st0" d="M77.3,36.4l0.5,0.1l0.3-2.8l-0.5-0.1l-0.1,0.6l-1-0.2l0.2-1.3l4,0.5l-0.2,1.3l-0.9-0.1l0.1-0.6l-0.6-0.1
		l-0.3,2.8l0.5,0.1l-0.1,0.8l-1.9-0.2L77.3,36.4z"/>
</g>
<g>
	<path class="st0" d="M48.5,69.1h0.4l-0.2-0.6h-1.2l-0.2,0.6h0.4v0.7h-1.5v-0.7h0.3l1.1-3.2h1l1.1,3.2H50v0.7h-1.5L48.5,69.1z
		 M47.7,67.8h0.8l-0.4-1.3L47.7,67.8z"/>
	<path class="st0" d="M52.2,65.8h1.7v0.7h-0.4V69h0.9c0,0,0,0,0.1,0c0,0,0,0,0.1-0.1s0,0,0-0.1c0,0,0,0,0-0.1v-0.5h0.8v1.5h-3.2V69
		h0.4v-2.5h-0.4L52.2,65.8z"/>
	<path class="st0" d="M57.6,65.8h1.8c0.2,0,0.4,0,0.6,0.1s0.3,0.1,0.4,0.3c0.1,0.1,0.2,0.2,0.3,0.4s0.2,0.2,0.2,0.4s0,0.4-0.1,0.5
		c-0.1,0.2-0.1,0.3-0.3,0.4c-0.1,0.1-0.3,0.2-0.4,0.3c-0.2,0.1-0.4,0.1-0.6,0.1h-0.6v0.8h0.4v0.7h-1.6v-0.7h0.4v-2.5h-0.4v-0.8H57.6
		z M58.9,66.5v1.1h0.4c0.2,0,0.4,0,0.5-0.1s0.2-0.2,0.2-0.4c0-0.2-0.1-0.3-0.2-0.4c-0.1-0.1-0.3-0.1-0.5-0.1L58.9,66.5L58.9,66.5z"
		/>
	<path class="st0" d="M65.8,65.8h1.7v0.7h-0.4V69h0.4v0.7h-1.7V69h0.4v-1h-1.8v1h0.5v0.7h-1.7V69h0.4v-2.5h-0.4v-0.7h1.7v0.7h-0.4
		v0.8h1.8v-0.8h-0.4L65.8,65.8L65.8,65.8z"/>
	<path class="st0" d="M72,69.1h0.4l-0.2-0.6H71l-0.2,0.6h0.4v0.7h-1.5v-0.7H70l1.1-3.2h1l1.1,3.2h0.3v0.7H72L72,69.1L72,69.1z
		 M71.2,67.8H72l-0.4-1.3L71.2,67.8z"/>
</g>
<g>
</g>
<g>
</g>
<g>
</g>
<g>
</g>
<g>
</g>
<g>
</g>
<g>
</g>
<g>
</g>
<g>
</g>
<g>
</g>
<g>
</g>
<g>
</g>
<g>
</g>
<g>
</g>
<g>
</g>
</svg>
