<?xml version="1.0" encoding="utf-8"?>
<!-- Generator: Adobe Illustrator 20.0.0, SVG Export Plug-In . SVG Version: 6.00 Build 0)  -->
<!DOCTYPE svg PUBLIC "-//W3C//DTD SVG 1.1//EN" "http://www.w3.org/Graphics/SVG/1.1/DTD/svg11.dtd">
<svg version="1.1" id="Layer_1" xmlns="http://www.w3.org/2000/svg" xmlns:xlink="http://www.w3.org/1999/xlink" x="0px" y="0px"
	 viewBox="0 0 216 73.8" style="enable-background:new 0 0 216 73.8;" xml:space="preserve">
<style type="text/css">
	.st0{fill:#FFFFFF;}
</style>
<g>
	<path class="st0" d="M49.9,23.9v-1.4c0-1.5-0.7-2.1-1.5-2.1c-1.2,0-1.6,0.6-1.6,1.9v8.9c0,1.3,0.4,1.9,1.6,1.9
		c1.1,0,1.5-0.6,1.5-1.8v-2.1h3v2c0,2.5-1.5,4.5-4.5,4.5c-3.1,0-4.6-2-4.6-4.5v-9c0-2.5,1.5-4.5,4.6-4.5c3,0,4.5,2.2,4.5,4.8v1.3
		H49.9z"/>
	<path class="st0" d="M57.2,22.3c0-2.5,1.5-4.5,4.6-4.5c3.1,0,4.6,2,4.6,4.5v9c0,2.5-1.5,4.5-4.6,4.5c-3.1,0-4.6-2-4.6-4.5V22.3z
		 M60.2,31.2c0,1.3,0.4,1.9,1.6,1.9s1.6-0.6,1.6-1.9v-8.9c0-1.3-0.4-1.9-1.6-1.9s-1.6,0.6-1.6,1.9V31.2z"/>
	<path class="st0" d="M82.5,18.1v17.5h-2.6V21.9h0l-2.7,13.6h-1.5L73,21.9h0v13.6h-2.6V18.1h3.9l2.1,10.2h0l2.1-10.2H82.5z"/>
	<path class="st0" d="M98.5,18.1v17.5h-2.6V21.9h0l-2.7,13.6h-1.5L89,21.9h0v13.6h-2.6V18.1h3.9l2.1,10.2h0l2.1-10.2H98.5z"/>
	<path class="st0" d="M102.5,18.1h3v13.2c0,1.3,0.5,1.9,1.6,1.9c1.1,0,1.6-0.6,1.6-1.9V18.1h3v13.1c0,3-1.7,4.6-4.6,4.6
		c-2.9,0-4.6-1.6-4.6-4.6V18.1z"/>
	<path class="st0" d="M115.8,35.5V18.1h2.8l3.7,10h0v-10h2.7v17.5h-2.6l-3.8-10.9h0v10.9H115.8z"/>
	<path class="st0" d="M129.5,35.5V18.1h3v17.5H129.5z"/>
	<path class="st0" d="M143.1,23.9v-1.4c0-1.5-0.7-2.1-1.5-2.1c-1.2,0-1.6,0.6-1.6,1.9v8.9c0,1.3,0.4,1.9,1.6,1.9
		c1.1,0,1.5-0.6,1.5-1.8v-2.1h3v2c0,2.5-1.5,4.5-4.5,4.5c-3.1,0-4.6-2-4.6-4.5v-9c0-2.5,1.5-4.5,4.6-4.5c3,0,4.5,2.2,4.5,4.8v1.3
		H143.1z"/>
	<path class="st0" d="M152.1,35.5h-2.9l3.2-17.5h3.7l3.2,17.5h-2.9l-0.5-3.9h-3.3L152.1,35.5z M153.1,29.1h2.4l-1.2-7.5h0
		L153.1,29.1z"/>
	<path class="st0" d="M164.1,20.7h-2.9v-2.6h8.8v2.6h-2.9v14.9h-3V20.7z"/>
	<path class="st0" d="M173.4,35.5V18.1h3v17.5H173.4z"/>
	<path class="st0" d="M180.9,22.3c0-2.5,1.5-4.5,4.6-4.5c3.1,0,4.6,2,4.6,4.5v9c0,2.5-1.5,4.5-4.6,4.5c-3.1,0-4.6-2-4.6-4.5V22.3z
		 M183.9,31.2c0,1.3,0.4,1.9,1.6,1.9s1.6-0.6,1.6-1.9v-8.9c0-1.3-0.4-1.9-1.6-1.9s-1.6,0.6-1.6,1.9V31.2z"/>
	<path class="st0" d="M194.2,35.5V18.1h2.8l3.7,10h0v-10h2.7v17.5h-2.6l-3.8-10.9h0v10.9H194.2z"/>
	<path class="st0" d="M213,22.4c-0.1-1.5-0.9-1.9-1.6-1.9c-1,0-1.5,0.6-1.5,1.7c0,3,6.1,4.4,6.1,9.1c0,2.9-1.9,4.5-4.7,4.5
		c-2.8,0-4.4-2.2-4.5-4.8l2.9-0.4c0.1,1.8,0.8,2.6,1.8,2.6c1,0,1.7-0.6,1.7-1.6c0-3.5-6.1-4.4-6.1-9.4c0-2.8,1.7-4.4,4.6-4.4
		c2.4,0,3.9,1.8,4.2,4.2L213,22.4z"/>
</g>
<polygon class="st0" points="29.9,18 18.4,18 18.4,3.8 17.4,4.8 17.4,18 6.9,18 5.9,19.1 17.4,19.1 17.4,53.3 18.4,52.4 18.4,19.1 
	29,19.1 "/>
<g>
	<path class="st0" d="M23.9,52.1c-0.8,0-1.3-0.6-1.3-1.4c0-0.8,0.6-1.4,1.3-1.4c0.7,0,1.3,0.6,1.3,1.4
		C25.2,51.6,24.6,52.1,23.9,52.1 M23.9,52.4c0.9,0,1.6-0.7,1.6-1.6c0-0.9-0.7-1.6-1.6-1.6c-0.9,0-1.6,0.7-1.6,1.6
		C22.2,51.7,23,52.4,23.9,52.4 M23.6,50.1h0.4c0.3,0,0.4,0.1,0.4,0.3c0,0.3-0.1,0.3-0.5,0.3h-0.3V50.1z M23.6,50.9h0.3l0.5,0.8h0.3
		l-0.5-0.8c0.2,0,0.5-0.2,0.5-0.5c0-0.4-0.2-0.5-0.7-0.5h-0.7v1.9h0.3V50.9z"/>
</g>
<g>
	<path class="st0" d="M44.9,42.7v7.1c0,1,0.3,1.8,1.4,1.8s1.4-0.8,1.4-1.8v-7.1h1v7.1c0,1.6-0.7,2.7-2.5,2.7s-2.5-1.1-2.5-2.7v-7.1
		H44.9z"/>
	<path class="st0" d="M51,45.4h0.9v0.8c0.5-0.5,1.1-0.9,1.6-0.9c1,0,1.5,0.5,1.5,1.8v5.3h-1v-5.2c0-0.8-0.2-1.2-0.8-1.2
		c-0.5,0-0.9,0.3-1.3,0.9v5.5h-1V45.4z"/>
	<path class="st0" d="M57.3,42.7h1v1.1h-1V42.7z M57.3,45.4h1v7h-1V45.4z"/>
	<path class="st0" d="M59.7,45.4h0.9v-2.3h1v2.3h1.3v0.8h-1.3v4.9c0,0.4,0.2,0.7,0.7,0.7c0.2,0,0.4-0.1,0.6-0.1v0.7
		c-0.3,0.1-0.5,0.1-0.9,0.1c-0.9,0-1.3-0.4-1.3-1.5v-4.8h-0.9V45.4z"/>
	<path class="st0" d="M65.1,49.1v0.4c0,1.7,0.4,2.3,1.3,2.3c0.7,0,1-0.7,1.2-1.3l0.9,0.1c-0.1,1-0.9,2-2.2,2c-1.5,0-2.1-1.1-2.1-3.6
		s0.7-3.6,2.1-3.6c1.5,0,2.1,1.3,2.1,3.3v0.5H65.1z M67.4,48.3c0-1.5-0.3-2.2-1.2-2.2c-0.7,0-1.2,0.5-1.2,2.2H67.4z"/>
	<path class="st0" d="M73.3,51.7L73.3,51.7c-0.4,0.5-0.8,0.8-1.5,0.8c-1.1,0-2-0.9-2-3.6s0.9-3.6,2-3.6c0.5,0,1,0.3,1.3,0.6v-3.2h1
		v7.8c0,0.9,0.1,1.5,0.2,1.9h-0.9L73.3,51.7z M73.1,46.7c-0.3-0.3-0.6-0.6-1-0.6c-0.8,0-1.3,0.7-1.3,2.8s0.5,2.8,1.3,2.8
		c0.3,0,0.7-0.3,1-0.7V46.7z"/>
	<path class="st0" d="M81.2,42.7l1.7,7.3h0l1.7-7.3h1.7v9.7h-1v-8.9h0l-2,8.9h-0.7l-2-8.9h0v8.9h-1v-9.7H81.2z"/>
	<path class="st0" d="M88.7,49.1v0.4c0,1.7,0.4,2.3,1.3,2.3c0.7,0,1-0.7,1.2-1.3l0.9,0.1c-0.1,1-0.9,2-2.2,2c-1.5,0-2.1-1.1-2.1-3.6
		s0.7-3.6,2.1-3.6c1.5,0,2.1,1.3,2.1,3.3v0.5H88.7z M91.1,48.3c0-1.5-0.3-2.2-1.2-2.2c-0.7,0-1.2,0.5-1.2,2.2H91.1z"/>
	<path class="st0" d="M92.9,45.4h0.9v-2.3h1v2.3h1.3v0.8h-1.3v4.9c0,0.4,0.2,0.7,0.7,0.7c0.2,0,0.4-0.1,0.6-0.1v0.7
		c-0.3,0.1-0.5,0.1-0.9,0.1c-0.9,0-1.3-0.4-1.3-1.5v-4.8h-0.9V45.4z"/>
	<path class="st0" d="M97.8,42.7h1v3.5c0.4-0.5,1.1-0.9,1.5-0.9c1,0,1.5,0.5,1.5,1.8v5.3h-1v-5.2c0-0.8-0.2-1.2-0.8-1.2
		c-0.5,0-0.9,0.3-1.3,0.9v5.5h-1V42.7z"/>
	<path class="st0" d="M105.8,45.3c1.5,0,2.1,1.1,2.1,3.6s-0.7,3.6-2.1,3.6s-2.1-1.1-2.1-3.6S104.3,45.3,105.8,45.3z M105.8,51.7
		c0.8,0,1.2-0.5,1.2-2.8s-0.3-2.8-1.2-2.8s-1.2,0.5-1.2,2.8S104.9,51.7,105.8,51.7z"/>
	<path class="st0" d="M112.8,51.7L112.8,51.7c-0.4,0.5-0.8,0.8-1.5,0.8c-1.1,0-2-0.9-2-3.6s0.9-3.6,2-3.6c0.5,0,1,0.3,1.3,0.6v-3.2
		h1v7.8c0,0.9,0.1,1.5,0.2,1.9h-0.9L112.8,51.7z M112.7,46.7c-0.3-0.3-0.6-0.6-1-0.6c-0.8,0-1.3,0.7-1.3,2.8s0.5,2.8,1.3,2.8
		c0.3,0,0.7-0.3,1-0.7V46.7z"/>
	<path class="st0" d="M116,42.7h1v1.1h-1V42.7z M116,45.4h1v7h-1V45.4z"/>
	<path class="st0" d="M122,47.2c-0.2-0.6-0.4-1.1-1.2-1.1c-0.5,0-0.8,0.4-0.8,0.8c0,1.4,3,1.5,3,3.7c0,1.1-0.8,1.9-1.9,1.9
		c-1.3,0-1.9-0.7-2.2-1.9l0.9-0.2c0.2,0.6,0.6,1.2,1.3,1.2c0.5,0,1-0.5,1-1.1c0-1.6-3-1.6-3-3.7c0-0.9,0.8-1.7,1.8-1.7
		c1.1,0,1.7,0.6,1.9,1.7L122,47.2z"/>
	<path class="st0" d="M123.9,45.4h0.9v-2.3h1v2.3h1.3v0.8h-1.3v4.9c0,0.4,0.2,0.7,0.7,0.7c0.2,0,0.4-0.1,0.6-0.1v0.7
		c-0.3,0.1-0.5,0.1-0.9,0.1c-0.9,0-1.3-0.4-1.3-1.5v-4.8h-0.9V45.4z"/>
	<path class="st0" d="M136.1,45.7c-0.1-1.5-0.6-2.2-1.4-2.2c-1.2,0-1.8,1.1-1.8,4.1s0.5,4.1,1.8,4.1c1,0,1.5-0.7,1.6-2.5h1
		c0,2.1-1,3.4-2.6,3.4c-1.7,0-2.8-1.3-2.8-5s1.1-5,2.8-5c1.4,0,2.3,1,2.5,3.1H136.1z"/>
	<path class="st0" d="M140.8,45.3c1.5,0,2.1,1.1,2.1,3.6s-0.7,3.6-2.1,3.6c-1.5,0-2.1-1.1-2.1-3.6S139.4,45.3,140.8,45.3z
		 M140.8,51.7c0.8,0,1.2-0.5,1.2-2.8s-0.3-2.8-1.2-2.8c-0.8,0-1.2,0.5-1.2,2.8S140,51.7,140.8,51.7z"/>
	<path class="st0" d="M144.9,52.4v-7h0.9v0.8c0.4-0.4,1-0.9,1.6-0.9c0.6,0,1.1,0.4,1.2,0.9c0.4-0.4,0.9-0.9,1.6-0.9
		c0.9,0,1.4,0.6,1.4,1.6v5.5h-1V47c0-0.7-0.2-0.9-0.7-0.9c-0.6,0-0.9,0.4-1.2,0.7v5.6h-1V47c0-0.7-0.3-0.9-0.8-0.9
		c-0.6,0-0.9,0.4-1.2,0.7v5.6H144.9z"/>
	<path class="st0" d="M154.1,52.4v-7h0.9v0.8c0.4-0.4,1-0.9,1.6-0.9c0.6,0,1.1,0.4,1.2,0.9c0.4-0.4,0.9-0.9,1.6-0.9
		c0.9,0,1.4,0.6,1.4,1.6v5.5h-1V47c0-0.7-0.2-0.9-0.7-0.9c-0.6,0-0.9,0.4-1.2,0.7v5.6h-1V47c0-0.7-0.3-0.9-0.8-0.9
		c-0.6,0-0.9,0.4-1.2,0.7v5.6H154.1z"/>
	<path class="st0" d="M167.3,52.4h-0.9v-0.8c-0.5,0.5-1.1,0.9-1.6,0.9c-1,0-1.5-0.5-1.5-1.8v-5.3h1v5.2c0,0.8,0.2,1.2,0.8,1.2
		c0.5,0,0.9-0.3,1.3-0.9v-5.5h1V52.4z"/>
	<path class="st0" d="M169.6,45.4h0.9v0.8c0.5-0.5,1.1-0.9,1.6-0.9c1,0,1.5,0.5,1.5,1.8v5.3h-1v-5.2c0-0.8-0.2-1.2-0.8-1.2
		c-0.5,0-0.9,0.3-1.3,0.9v5.5h-1V45.4z"/>
	<path class="st0" d="M175.9,42.7h1v1.1h-1V42.7z M175.9,45.4h1v7h-1V45.4z"/>
	<path class="st0" d="M181.9,47.5c-0.1-1-0.5-1.4-1.1-1.4c-0.8,0-1.2,0.5-1.2,2.8s0.3,2.8,1.2,2.8c0.6,0,1-0.3,1.1-1.5h0.9
		c-0.2,1.4-0.8,2.3-2.1,2.3c-1.5,0-2.1-1.1-2.1-3.6s0.7-3.6,2.1-3.6c1.3,0,1.9,0.8,2,2.2H181.9z"/>
	<path class="st0" d="M184.6,47.3c0.2-1.1,0.8-2,2.1-2c1.3,0,2,0.8,2,2v3.9c0,0.6,0.1,1.1,0.2,1.2h-1l-0.1-0.6
		c-0.4,0.4-1,0.7-1.5,0.7c-1.1,0-1.8-0.7-1.8-1.8c0-1.7,1.9-2.6,3.3-2.9v-0.5c0-0.8-0.4-1.2-1-1.2c-0.7,0-1.1,0.7-1.2,1.4
		L184.6,47.3z M187.7,48.7c-0.9,0.3-2.3,0.9-2.3,2c0,0.7,0.3,1.1,1,1.1c0.5,0,1-0.4,1.3-0.7V48.7z"/>
	<path class="st0" d="M190.1,45.4h0.9v-2.3h1v2.3h1.3v0.8H192v4.9c0,0.4,0.2,0.7,0.7,0.7c0.2,0,0.4-0.1,0.6-0.1v0.7
		c-0.3,0.1-0.5,0.1-0.9,0.1c-0.9,0-1.3-0.4-1.3-1.5v-4.8h-0.9V45.4z"/>
	<path class="st0" d="M195.1,42.7h1v1.1h-1V42.7z M195.1,45.4h1v7h-1V45.4z"/>
	<path class="st0" d="M200,45.3c1.5,0,2.1,1.1,2.1,3.6s-0.7,3.6-2.1,3.6c-1.5,0-2.1-1.1-2.1-3.6S198.5,45.3,200,45.3z M200,51.7
		c0.8,0,1.2-0.5,1.2-2.8s-0.3-2.8-1.2-2.8c-0.8,0-1.2,0.5-1.2,2.8S199.2,51.7,200,51.7z"/>
	<path class="st0" d="M203.9,45.4h0.9v0.8c0.5-0.5,1.1-0.9,1.6-0.9c1,0,1.5,0.5,1.5,1.8v5.3h-1v-5.2c0-0.8-0.2-1.2-0.8-1.2
		c-0.5,0-0.9,0.3-1.3,0.9v5.5h-1V45.4z"/>
	<path class="st0" d="M212.9,47.2c-0.2-0.6-0.4-1.1-1.2-1.1c-0.5,0-0.8,0.4-0.8,0.8c0,1.4,3,1.5,3,3.7c0,1.1-0.8,1.9-1.9,1.9
		c-1.3,0-1.9-0.7-2.2-1.9l0.9-0.2c0.2,0.6,0.6,1.2,1.3,1.2c0.5,0,1-0.5,1-1.1c0-1.6-3-1.6-3-3.7c0-0.9,0.8-1.7,1.8-1.7
		c1.1,0,1.7,0.6,1.9,1.7L212.9,47.2z"/>
</g>
<g>
	<g>
		<path class="st0" d="M45.1,67.6h-1.2v-1.1h3.6v1.1h-1.2v6.1h-1.2V67.6z"/>
		<path class="st0" d="M48.5,73.7v-7.2h1.2v2.9h1.3v-2.9h1.2v7.2h-1.2v-3.2h-1.3v3.2H48.5z"/>
		<path class="st0" d="M53.7,73.7v-7.2H57v1.1H55v1.9h1.6v1.1H55v2.1h2.2v1.1H53.7z"/>
		<path class="st0" d="M60.8,66.5h1.2V72c0,0.5,0.2,0.8,0.7,0.8s0.7-0.3,0.7-0.8v-5.4h1.2v5.4c0,1.2-0.7,1.9-1.9,1.9
			c-1.2,0-1.9-0.7-1.9-1.9V66.5z"/>
		<path class="st0" d="M66.1,73.7v-7.2h1.1l1.5,4.1h0v-4.1h1.1v7.2h-1.1l-1.6-4.5h0v4.5H66.1z"/>
		<path class="st0" d="M71.4,73.7v-7.2h1.2v7.2H71.4z"/>
		<path class="st0" d="M75,67.6h-1.2v-1.1h3.6v1.1h-1.2v6.1H75V67.6z"/>
		<path class="st0" d="M78.4,73.7v-7.2h3.3v1.1h-2.1v1.9h1.6v1.1h-1.6v2.1h2.2v1.1H78.4z"/>
		<path class="st0" d="M83.1,66.5h1.8c1.3,0,1.9,0.7,1.9,2.2v2.8c0,1.5-0.7,2.2-1.9,2.2h-1.8V66.5z M84.3,72.7h0.4
			c0.7,0,0.9-0.2,0.9-1v-3.1c0-0.8-0.2-1-0.9-1h-0.4V72.7z"/>
		<path class="st0" d="M95.7,66.5v7.2h-1.1v-5.6h0l-1.1,5.6h-0.6l-1.1-5.6h0v5.6h-1.1v-7.2h1.6l0.9,4.2h0l0.9-4.2H95.7z"/>
		<path class="st0" d="M97.1,73.7v-7.2h3.3v1.1h-2.1v1.9h1.6v1.1h-1.6v2.1h2.2v1.1H97.1z"/>
		<path class="st0" d="M102.4,67.6h-1.2v-1.1h3.6v1.1h-1.2v6.1h-1.2V67.6z"/>
		<path class="st0" d="M105.8,73.7v-7.2h1.2v2.9h1.3v-2.9h1.2v7.2h-1.2v-3.2h-1.3v3.2H105.8z"/>
		<path class="st0" d="M111.1,68.3c0-1,0.6-1.8,1.9-1.8s1.9,0.8,1.9,1.8V72c0,1-0.6,1.8-1.9,1.8s-1.9-0.8-1.9-1.8V68.3z M112.3,71.9
			c0,0.5,0.2,0.8,0.7,0.8c0.5,0,0.7-0.3,0.7-0.8v-3.6c0-0.5-0.2-0.8-0.7-0.8c-0.5,0-0.7,0.3-0.7,0.8V71.9z"/>
		<path class="st0" d="M116.3,66.5h1.8c1.3,0,2,0.7,2,2.2v2.8c0,1.5-0.7,2.2-2,2.2h-1.8V66.5z M117.5,72.7h0.4c0.7,0,0.9-0.2,0.9-1
			v-3.1c0-0.8-0.2-1-0.9-1h-0.4V72.7z"/>
		<path class="st0" d="M121.6,73.7v-7.2h1.2v7.2H121.6z"/>
		<path class="st0" d="M126.7,68.3c0-0.6-0.4-0.8-0.7-0.8c-0.4,0-0.6,0.3-0.6,0.7c0,1.2,2.5,1.8,2.5,3.8c0,1.2-0.8,1.8-2,1.8
			c-1.1,0-1.8-0.9-1.9-2l1.2-0.2c0,0.7,0.3,1.1,0.7,1.1c0.4,0,0.7-0.2,0.7-0.7c0-1.4-2.5-1.8-2.5-3.9c0-1.1,0.7-1.8,1.9-1.8
			c1,0,1.6,0.7,1.7,1.7L126.7,68.3z"/>
		<path class="st0" d="M129.9,67.6h-1.2v-1.1h3.6v1.1h-1.2v6.1h-1.2V67.6z"/>
		<path class="st0" d="M138.2,68.9v-0.6c0-0.6-0.3-0.9-0.6-0.9c-0.5,0-0.7,0.3-0.7,0.8v3.6c0,0.5,0.2,0.8,0.7,0.8
			c0.4,0,0.6-0.3,0.6-0.7v-0.9h1.2V72c0,1-0.6,1.8-1.8,1.8c-1.3,0-1.9-0.8-1.9-1.8v-3.7c0-1,0.6-1.8,1.9-1.8c1.2,0,1.8,0.9,1.8,2
			v0.5H138.2z"/>
		<path class="st0" d="M140.9,73.7v-7.2h1.2v2.9h1.3v-2.9h1.2v7.2h-1.2v-3.2h-1.3v3.2H140.9z"/>
		<path class="st0" d="M146.2,66.5h1.2V72c0,0.5,0.2,0.8,0.7,0.8c0.4,0,0.7-0.3,0.7-0.8v-5.4h1.2v5.4c0,1.2-0.7,1.9-1.9,1.9
			s-1.9-0.7-1.9-1.9V66.5z"/>
		<path class="st0" d="M152.6,73.7h-1.2v-7.2h1.7c1.4,0,2.1,0.6,2.1,2.1c0,1.2-0.4,1.6-0.9,1.8l1,3.3h-1.3l-0.9-3
			c-0.2,0-0.4,0-0.6,0V73.7z M152.6,69.8h0.4c0.7,0,0.9-0.2,0.9-1.1c0-0.9-0.2-1.1-0.9-1.1h-0.4V69.8z"/>
		<path class="st0" d="M159.1,68.9v-0.6c0-0.6-0.3-0.9-0.6-0.9c-0.5,0-0.7,0.3-0.7,0.8v3.6c0,0.5,0.2,0.8,0.7,0.8
			c0.4,0,0.6-0.3,0.6-0.7v-0.9h1.2V72c0,1-0.6,1.8-1.8,1.8c-1.3,0-1.9-0.8-1.9-1.8v-3.7c0-1,0.6-1.8,1.9-1.8c1.2,0,1.8,0.9,1.8,2
			v0.5H159.1z"/>
		<path class="st0" d="M161.8,73.7v-7.2h1.2v2.9h1.3v-2.9h1.2v7.2h-1.2v-3.2H163v3.2H161.8z"/>
	</g>
</g>
<path class="st0" d="M10.9,35.6c-5.2-2.9-4.4-6.6-4.4-6.6c0-2.2,1.8-3.7,5.1-6.5c1-0.9,1.7-1.8,2.2-2.8H4.2l2.4-2.5h8.2
	c0.3-1.1,0.3-1.9,0.3-2.1V0c0-0.1-0.2,0.2-0.2,0.2c0,0.8-0.1,2.1-0.8,4.4C12.8,9,7.6,12.4,6.3,14C3.5,17.4,2,20.7,2.7,26.2
	c0.4,2.6,1.8,6.2,4.6,8.1c1.7,1.2,5.6,3,6.3,3.8c0.7,0.8,1.2,2.8,0.9,2c-0.4-0.8-1.5-2.8-6.2-4.3c-4.7-1.5-6.1-5.4-7.1-9.1
	c-1.1-3.8-0.7-8.6-0.7-8.6l-0.2,0.2c0,0-0.3,13.8-0.3,15.3c0,1.4,0.3,4.2,1.5,6.5c3.1,5.7,5.4,4.8,9.7,6.3c3.7,1.3,3.8,3.4,4,4.7
	c0.3,1.3,0.3,5.3,0.3,5.3l0.4-0.4v-9.3c0-1.1,0.1-2.1-0.3-5C15.3,38.7,14,37.4,10.9,35.6z"/>
<g>
</g>
<g>
</g>
<g>
</g>
<g>
</g>
<g>
</g>
<g>
</g>
</svg>
